<svg xmlns="http://www.w3.org/2000/svg" viewBox="0 0 250 220.83"><title>bluesky_icon</title><g id="e7817090-6322-423c-9121-becbab3ab109" data-name="Layer 2"><g id="a5a39b73-4161-4560-ac66-586782956a6b" data-name="Layer 1"><path d="M195.81,14.86C167.15,36.45,136.32,80.22,125,103.71,113.68,80.22,82.85,36.45,54.19,14.86,33.51-.71,0-12.76,0,25.59c0,7.65,4.37,64.34,7,73.54,8.92,32,41.44,40.16,70.36,35.22C26.75,143,13.89,171.57,41.67,200.17c52.75,54.31,75.82-13.63,81.73-31,1.09-3.22,1.6-4.71,1.6-3.39,0-1.32.51.17,1.6,3.39,5.91,17.4,29,85.34,81.73,31,27.78-28.6,14.92-57.19-35.64-65.82,28.92,4.94,61.44-3.22,70.36-35.22,2.57-9.2,6.95-65.89,6.95-73.54C250-12.76,216.49-.71,195.81,14.86Z" style="fill:#0085ff"/></g></g></svg>