<?xml version="1.0" encoding="utf-8"?>
<!-- Generator: Adobe Illustrator 24.0.1, SVG Export Plug-In . SVG Version: 6.00 Build 0)  -->
<svg version="1.1" baseProfile="tiny" id="Layer_1" xmlns="http://www.w3.org/2000/svg" xmlns:xlink="http://www.w3.org/1999/xlink"
	 x="0px" y="0px" viewBox="0 0 400 400" xml:space="preserve">
<g id="Dark_Blue">
	<circle fill="#0085FF" cx="200" cy="200" r="200"/>
</g>
<path fill="#FFFFFF" d="M270.8,104.4c-28.7,21.6-59.5,65.4-70.8,88.8c-11.3-23.5-42.1-67.3-70.8-88.8C108.5,88.9,75,76.8,75,115.2
	c0,7.7,4.4,64.3,6.9,73.5c8.9,32,41.4,40.2,70.4,35.2c-50.6,8.6-63.4,37.2-35.6,65.8c52.8,54.3,75.8-13.6,81.7-31
	c1.1-3.2,1.6-4.7,1.6-3.4c0-1.3,0.5,0.2,1.6,3.4c5.9,17.4,29,85.3,81.7,31c27.8-28.6,14.9-57.2-35.6-65.8
	c28.9,4.9,61.4-3.2,70.4-35.2c2.6-9.2,6.9-65.9,6.9-73.5C325,76.8,291.5,88.9,270.8,104.4z"/>
</svg>
