<svg xmlns="http://www.w3.org/2000/svg" viewBox="0 0 128 90.2"><title>yt_icon</title><g id="e4b6a5fa-9863-40ba-a8cc-a4d65f33f6fe" data-name="Layer 2"><g id="fc573d07-b70e-4fcc-ae40-5f56d3dd82c1" data-name="Camada 1"><path d="M125.3,14.1A16.07,16.07,0,0,0,114,2.7C104,0,64,0,64,0S24,0,14,2.7A15.9,15.9,0,0,0,2.7,14.1C0,24.1,0,45.1,0,45.1s0,21,2.7,31A16.07,16.07,0,0,0,14,87.5c10,2.7,50,2.7,50,2.7s40,0,50-2.7a15.9,15.9,0,0,0,11.3-11.4c2.7-10,2.7-31,2.7-31S128,24.1,125.3,14.1Z" style="fill:red"/><polygon points="50 64.1 50 26.1 83.5 45.1 50 64.1" style="fill:#fff"/></g></g></svg>