<?xml version="1.0" encoding="utf-8"?>
<!-- Generator: Adobe Illustrator 24.0.1, SVG Export Plug-In . SVG Version: 6.00 Build 0)  -->
<svg version="1.1" baseProfile="tiny" id="Camada_1"
	 xmlns="http://www.w3.org/2000/svg" xmlns:xlink="http://www.w3.org/1999/xlink" x="0px" y="0px" viewBox="0 0 192 192"
	 xml:space="preserve">
<title>Ativo 1</title>
<g id="Layer_1">
	<circle fill="#FF0000" cx="96" cy="96" r="96"/>
	<path fill="#FFFFFF" d="M157.3,65c-1.5-5.6-5.8-9.9-11.3-11.4c-10-2.7-50-2.7-50-2.7s-40,0-50,2.7c-5.5,1.5-9.9,5.8-11.3,11.4
		C32,75,32,96,32,96s0,21,2.7,31c1.5,5.6,5.8,9.9,11.3,11.4c10,2.7,50,2.7,50,2.7s40,0,50-2.7c5.5-1.5,9.9-5.8,11.3-11.4
		c2.7-10,2.7-31,2.7-31S160,75,157.3,65z M82,115V77l33.5,19L82,115z"/>
</g>
</svg>
